<svg xmlns="http://www.w3.org/2000/svg" width="877.71" height="877.71" viewBox="0 0 877.71 877.71">
  <g id="bracket" transform="matrix(0.839, 0.545, -0.545, 0.839, 345.574, 0)" opacity="0.4">
    <path id="Path_36856" data-name="Path 36856" d="M484.367,225.618V104.1A104.216,104.216,0,0,0,380.269,0H325.742a29.742,29.742,0,0,0,0,59.484h54.527A44.663,44.663,0,0,1,424.883,104.1v133.84a29.748,29.748,0,0,0,8.711,21.031l58.282,58.281-58.281,58.281a29.744,29.744,0,0,0-8.712,21.031V530.4a44.663,44.663,0,0,1-44.613,44.613H325.742a29.742,29.742,0,0,0,0,59.484h54.527a104.216,104.216,0,0,0,104.1-104.1V408.881l70.6-70.6a29.741,29.741,0,0,0,0-42.062Z" transform="translate(70.82 0)" fill="#ff4900"/>
    <path id="Path_36857" data-name="Path 36857" d="M79.313,530.4a104.216,104.216,0,0,0,104.1,104.1h54.527a29.742,29.742,0,0,0,0-59.484H183.41A44.663,44.663,0,0,1,138.8,530.4V396.562a29.748,29.748,0,0,0-8.711-21.031L71.8,317.25l58.281-58.281a29.744,29.744,0,0,0,8.712-21.031V104.1A44.663,44.663,0,0,1,183.41,59.484h54.527a29.742,29.742,0,0,0,0-59.484H183.41a104.216,104.216,0,0,0-104.1,104.1v121.52l-70.6,70.6a29.741,29.741,0,0,0,0,42.062l70.6,70.6Z" fill="#ff4900"/>
  </g>
</svg>
