<svg xmlns="http://www.w3.org/2000/svg" width="40" height="40.53" viewBox="0 0 40 40.53">
  <path id="github-image" d="M20,.5C8.95.5,0,9.8,0,21.279A20.722,20.722,0,0,0,13.675,40.994a1.013,1.013,0,0,0,1.367-1c0-.493-.017-1.8-.025-3.533C9.453,37.715,8.28,33.674,8.28,33.674a5.46,5.46,0,0,0-2.225-3.04c-1.812-1.288.14-1.262.14-1.262a4.212,4.212,0,0,1,3.063,2.141c1.783,3.177,4.682,2.259,5.825,1.729a4.5,4.5,0,0,1,1.267-2.779c-4.442-.52-9.11-2.307-9.11-10.268A8.191,8.191,0,0,1,9.3,14.62a7.656,7.656,0,0,1,.175-5.5s1.675-.557,5.5,2.13a18.174,18.174,0,0,1,10,0c3.8-2.687,5.475-2.13,5.475-2.13a7.869,7.869,0,0,1,.2,5.5A8.225,8.225,0,0,1,32.7,20.2c0,7.983-4.675,9.739-9.125,10.25a5.081,5.081,0,0,1,1.35,3.845c0,2.781-.025,5.015-.025,5.69,0,.544.35,1.195,1.375.987A20.652,20.652,0,0,0,40,21.279C40,9.8,31.045.5,20,.5Z" transform="translate(0 -0.5)" fill="#f3f3f3"/>
</svg>
