<svg xmlns="http://www.w3.org/2000/svg" width="645.978" height="645.978" viewBox="0 0 645.978 645.978">
  <g id="python" opacity="0.4">
    <path id="Path_36858" data-name="Path 36858" d="M551.352,184.2H461.773V94.626A94.732,94.732,0,0,0,367.148,0H278.83A94.732,94.732,0,0,0,184.2,94.626V184.2H94.626A94.732,94.732,0,0,0,0,278.83v88.317a94.732,94.732,0,0,0,94.626,94.626H184.2v89.579a94.732,94.732,0,0,0,94.626,94.626h88.317a94.732,94.732,0,0,0,94.626-94.626V461.773h89.579a94.732,94.732,0,0,0,94.626-94.626V278.83A94.732,94.732,0,0,0,551.352,184.2ZM94.626,423.923A56.841,56.841,0,0,1,37.85,367.148V278.83a56.841,56.841,0,0,1,56.775-56.775H322.989a18.925,18.925,0,1,0,0-37.85H222.055V94.626A56.841,56.841,0,0,1,278.83,37.85h88.317a56.841,56.841,0,0,1,56.775,56.775V304.064H203.13A18.924,18.924,0,0,0,184.2,322.989V423.923Zm513.5-56.775a56.841,56.841,0,0,1-56.775,56.775H322.989a18.925,18.925,0,1,0,0,37.85H423.923v89.579a56.841,56.841,0,0,1-56.775,56.775H278.83a56.841,56.841,0,0,1-56.775-56.775V341.914H442.848a18.924,18.924,0,0,0,18.925-18.925V222.055h89.579a56.841,56.841,0,0,1,56.775,56.775Zm0,0" fill="#ff4900"/>
    <path id="Path_36859" data-name="Path 36859" d="M243.85,93.925A18.925,18.925,0,1,1,224.925,75,18.924,18.924,0,0,1,243.85,93.925Zm0,0" transform="translate(53.905 19.626)" fill="#ff4900"/>
    <path id="Path_36860" data-name="Path 36860" d="M313.85,425.925A18.925,18.925,0,1,1,294.925,407,18.924,18.924,0,0,1,313.85,425.925Zm0,0" transform="translate(72.223 106.502)" fill="#ff4900"/>
  </g>
</svg>
